<?xml version="1.0" encoding="UTF-8" standalone="no"?>
<!DOCTYPE svg PUBLIC "-//W3C//DTD SVG 1.1//EN" "http://www.w3.org/Graphics/SVG/1.1/DTD/svg11.dtd">
<svg version="1.1" xmlns="http://www.w3.org/2000/svg" xmlns:xlink="http://www.w3.org/1999/xlink" preserveAspectRatio="xMidYMid meet" viewBox="0 0 100 100" width="100" height="100"><defs><path d="M732.65 635.62C732.65 931.24 510.28 1171.25 236.38 1171.25C-37.52 1171.25 -259.89 931.24 -259.89 635.62C-259.89 340.01 -37.52 100 236.38 100C510.28 100 732.65 340.01 732.65 635.62Z" id="buR1gheRr"></path><path d="M70.19 42.92L60.44 48.56L27.01 29.4L27.17 92.51L17.35 86.79L17.31 12.5L70.19 42.92Z" id="aaLVAFJHP"></path><path d="M40.94 73.61L40.94 62.34L74.26 43L19.55 11.54L29.42 5.89L93.75 43.06L40.94 73.61Z" id="apxfWnXef"></path><path d="M28.96 33.1L38.71 38.73L38.8 77.26L93.4 45.61L93.35 56.98L29 94.11L28.96 33.1Z" id="a2Ddl8MUL3"></path></defs><g><g><g><use xlink:href="#buR1gheRr" opacity="1" fill="#384e72" fill-opacity="1"></use></g><g><use xlink:href="#aaLVAFJHP" opacity="1" fill="#384e72" fill-opacity="1"></use></g><g><use xlink:href="#apxfWnXef" opacity="1" fill="#b5e4e7" fill-opacity="1"></use><g><use xlink:href="#apxfWnXef" opacity="1" fill-opacity="0" stroke="#000000" stroke-width="0" stroke-opacity="1"></use></g></g><g><use xlink:href="#a2Ddl8MUL3" opacity="1" fill="#ffc5b7" fill-opacity="1"></use><g><use xlink:href="#a2Ddl8MUL3" opacity="1" fill-opacity="0" stroke="#ffffff" stroke-width="0" stroke-opacity="1"></use></g></g></g></g></svg>