<?xml version="1.0" encoding="UTF-8" standalone="no"?>
<!DOCTYPE svg PUBLIC "-//W3C//DTD SVG 1.1//EN" "http://www.w3.org/Graphics/SVG/1.1/DTD/svg11.dtd">
<svg version="1.1" xmlns="http://www.w3.org/2000/svg" xmlns:xlink="http://www.w3.org/1999/xlink" preserveAspectRatio="xMidYMid meet" viewBox="0 0 100 100" width="100" height="100"><defs><path d="M225.32 244.44C225.32 310.78 163.56 364.64 87.5 364.64C11.44 364.64 -50.32 310.78 -50.32 244.44C-50.32 178.1 11.44 124.24 87.5 124.24C163.56 124.24 225.32 178.1 225.32 244.44Z" id="b1viCMqCtt"></path><path d="M-564.39 -41.31L-203.7 -41.31L-203.7 250L-564.39 250L-564.39 -41.31Z" id="a1ETCu8Mfo"></path><path d="M70.21 43.11L60.46 48.75L27.03 29.59L27.19 92.7L17.36 86.98L17.32 12.69L70.21 43.11Z" id="b3dbq2Eeb4"></path><path d="M40.94 73.96L40.94 62.7L74.26 43.35L19.55 11.89L29.42 6.25L93.75 43.42L40.94 73.96Z" id="g1f4vma6Df"></path><path d="M28.96 33.1L38.71 38.73L38.8 77.26L93.4 45.61L93.35 56.98L29 94.11L28.96 33.1Z" id="a1tQ87dfhN"></path></defs><g><g><g><use xlink:href="#b1viCMqCtt" opacity="1" fill="#384e72" fill-opacity="1"></use></g><g><use xlink:href="#a1ETCu8Mfo" opacity="1" fill="#384e72" fill-opacity="1"></use></g><g><use xlink:href="#b3dbq2Eeb4" opacity="1" fill="#384e72" fill-opacity="1"></use></g><g><use xlink:href="#g1f4vma6Df" opacity="1" fill="#b5e4e7" fill-opacity="1"></use><g><use xlink:href="#g1f4vma6Df" opacity="1" fill-opacity="0" stroke="#000000" stroke-width="0" stroke-opacity="1"></use></g></g><g><use xlink:href="#a1tQ87dfhN" opacity="1" fill="#ffc5b7" fill-opacity="1"></use><g><use xlink:href="#a1tQ87dfhN" opacity="1" fill-opacity="0" stroke="#ffffff" stroke-width="0" stroke-opacity="1"></use></g></g></g></g></svg>