<?xml version="1.0" encoding="UTF-8" standalone="no"?>
<!DOCTYPE svg PUBLIC "-//W3C//DTD SVG 1.1//EN" "http://www.w3.org/Graphics/SVG/1.1/DTD/svg11.dtd">
<svg version="1.1" xmlns="http://www.w3.org/2000/svg" xmlns:xlink="http://www.w3.org/1999/xlink" preserveAspectRatio="xMidYMid meet" viewBox="0 0 100 100" width="100" height="100"><defs><path d="M200 62.18C200 128.52 138.25 182.39 62.18 182.39C-13.88 182.39 -75.64 128.52 -75.64 62.18C-75.64 -4.16 -13.88 -58.02 62.18 -58.02C138.25 -58.02 200 -4.16 200 62.18Z" id="b2u4N6VYJI"></path><path d="M-564.39 -41.31L-203.7 -41.31L-203.7 250L-564.39 250L-564.39 -41.31Z" id="a1ETCu8Mfo"></path><path d="M70.21 43.11L60.46 48.75L27.03 29.59L27.19 92.7L17.36 86.98L17.32 12.69L70.21 43.11Z" id="b357crXWzW"></path><clipPath id="clipd2Bf3oF8CT"><use xlink:href="#b357crXWzW" opacity="1"></use></clipPath><path d="M40.94 73.96L40.94 62.7L74.26 43.35L19.55 11.89L29.42 6.25L93.75 43.42L40.94 73.96Z" id="g1f4vma6Df"></path><path d="M28.96 33.1L38.71 38.73L38.8 77.26L93.4 45.61L93.35 56.98L29 94.11L28.96 33.1Z" id="a1tQ87dfhN"></path></defs><g><g><g><use xlink:href="#b2u4N6VYJI" opacity="1" fill="#384e72" fill-opacity="1"></use></g><g><use xlink:href="#a1ETCu8Mfo" opacity="1" fill="#384e72" fill-opacity="1"></use></g><g><use xlink:href="#b357crXWzW" opacity="1" fill="#384e72" fill-opacity="1"></use><g clip-path="url(#clipd2Bf3oF8CT)"><use xlink:href="#b357crXWzW" opacity="1" fill-opacity="0" stroke="#ffffff" stroke-width="2" stroke-opacity="1"></use></g></g><g><use xlink:href="#g1f4vma6Df" opacity="1" fill="#b5e4e7" fill-opacity="1"></use><g><use xlink:href="#g1f4vma6Df" opacity="1" fill-opacity="0" stroke="#000000" stroke-width="0" stroke-opacity="1"></use></g></g><g><use xlink:href="#a1tQ87dfhN" opacity="1" fill="#ffc5b7" fill-opacity="1"></use><g><use xlink:href="#a1tQ87dfhN" opacity="1" fill-opacity="0" stroke="#ffffff" stroke-width="0" stroke-opacity="1"></use></g></g></g></g></svg>