<?xml version="1.0" encoding="UTF-8" standalone="no"?>
<!DOCTYPE svg PUBLIC "-//W3C//DTD SVG 1.1//EN" "http://www.w3.org/Graphics/SVG/1.1/DTD/svg11.dtd">
<svg version="1.1" xmlns="http://www.w3.org/2000/svg" xmlns:xlink="http://www.w3.org/1999/xlink" preserveAspectRatio="xMidYMid meet" viewBox="0 0 100 100" width="60" height="60"><defs><path d="M732.65 635.62C732.65 931.24 510.28 1171.25 236.38 1171.25C-37.52 1171.25 -259.89 931.24 -259.89 635.62C-259.89 340.01 -37.52 100 236.38 100C510.28 100 732.65 340.01 732.65 635.62Z" id="a32hE8hPlX"></path><path d="M70.29 43.29L60.54 48.93L27.1 29.77L27.27 92.88L17.44 87.16L17.4 12.87L70.29 43.29Z" id="n2e7O9XctL"></path><clipPath id="clipe1cjpI9nVn"><use xlink:href="#n2e7O9XctL" opacity="1"></use></clipPath><path d="M40.94 73.61L40.94 62.34L74.26 43L19.55 11.54L29.42 5.89L93.75 43.06L40.94 73.61Z" id="beIqXTLKp"></path><path d="M28.96 33.1L38.71 38.73L38.8 77.26L93.4 45.61L93.35 56.98L29 94.11L28.96 33.1Z" id="b7hYQ9qOm"></path></defs><g><g><g><use xlink:href="#a32hE8hPlX" opacity="1" fill="#384e72" fill-opacity="1"></use></g><g><use xlink:href="#n2e7O9XctL" opacity="1" fill="#384e72" fill-opacity="1"></use><g clip-path="url(#clipe1cjpI9nVn)"><use xlink:href="#n2e7O9XctL" opacity="1" fill-opacity="0" stroke="#ffffff" stroke-width="2" stroke-opacity="1"></use></g></g><g><use xlink:href="#beIqXTLKp" opacity="1" fill="#b5e4e7" fill-opacity="1"></use><g><use xlink:href="#beIqXTLKp" opacity="1" fill-opacity="0" stroke="#ffffff" stroke-width="0" stroke-opacity="1"></use></g></g><g><use xlink:href="#b7hYQ9qOm" opacity="1" fill="#ffc5b7" fill-opacity="1"></use><g><use xlink:href="#b7hYQ9qOm" opacity="1" fill-opacity="0" stroke="#ffffff" stroke-width="0" stroke-opacity="1"></use></g></g></g></g></svg>