<?xml version="1.0" encoding="UTF-8" standalone="no"?>
<!DOCTYPE svg PUBLIC "-//W3C//DTD SVG 1.1//EN" "http://www.w3.org/Graphics/SVG/1.1/DTD/svg11.dtd">
<svg version="1.1" xmlns="http://www.w3.org/2000/svg" xmlns:xlink="http://www.w3.org/1999/xlink" preserveAspectRatio="xMidYMid meet" viewBox="0 0 640 640" width="30" height="30"><defs><path d="M1189.57 360.58C1189.57 848.72 799.93 1245.04 320 1245.04C-159.93 1245.04 -549.57 848.72 -549.57 360.58C-549.57 -127.56 -159.93 -523.87 320 -523.87C799.93 -523.87 1189.57 -127.56 1189.57 360.58Z" id="o16ehYj1Ii"></path><path d="M399.63 189.92C421.72 189.92 439.63 207.83 439.63 229.92C439.63 309.58 439.63 508.56 439.63 588.21C439.63 610.31 421.72 628.21 399.63 628.21C332.31 628.21 170.35 628.21 103.03 628.21C80.94 628.21 63.03 610.31 63.03 588.21C63.03 508.56 63.03 309.58 63.03 229.92C63.03 207.83 80.94 189.92 103.03 189.92C170.35 189.92 332.31 189.92 399.63 189.92Z" id="b4oHKSxXEL"></path><path d="M437.72 296.1L335.25 296.1L335.25 190.92" id="f1iIoC9gE1"></path><path d="M179.43 265.19C179.43 282.07 167.01 295.78 151.72 295.78C136.43 295.78 124.01 282.07 124.01 265.19C124.01 248.31 136.43 234.6 151.72 234.6C167.01 234.6 179.43 248.31 179.43 265.19Z" id="a2dU1AoRoK"></path><path d="M199.04 354.86C199.64 333.44 183.87 322.72 151.75 322.72C119.63 322.72 103.85 333.44 104.4 354.86" id="jaXB6Z4zF"></path><path d="M346.49 434.8L151.72 434.8L346.49 434.8Z" id="b14GfsLBHA"></path><path d="M348.71 478.94L153.95 478.94L348.71 478.94Z" id="abh9a5KK3"></path><path d="M348.71 519.63L153.95 519.63L348.71 519.63Z" id="by3uqql1l"></path></defs><g><g><g><use xlink:href="#o16ehYj1Ii" opacity="1" fill="#384e72" fill-opacity="1"></use></g><g><g><use xlink:href="#b4oHKSxXEL" opacity="1" fill-opacity="0" stroke="#ffc5b7" stroke-width="20" stroke-opacity="1"></use></g></g><g><g><use xlink:href="#f1iIoC9gE1" opacity="1" fill-opacity="0" stroke="#ffc5b7" stroke-width="20" stroke-opacity="1"></use></g></g><g><g><use xlink:href="#a2dU1AoRoK" opacity="1" fill-opacity="0" stroke="#ffc5b7" stroke-width="20" stroke-opacity="1"></use></g></g><g><g><use xlink:href="#jaXB6Z4zF" opacity="1" fill-opacity="0" stroke="#ffc5b7" stroke-width="20" stroke-opacity="1"></use></g></g><g><g><use xlink:href="#b14GfsLBHA" opacity="1" fill-opacity="0" stroke="#ffc5b7" stroke-width="20" stroke-opacity="1"></use></g></g><g><g><use xlink:href="#abh9a5KK3" opacity="1" fill-opacity="0" stroke="#ffc5b7" stroke-width="20" stroke-opacity="1"></use></g></g><g><g><use xlink:href="#by3uqql1l" opacity="1" fill-opacity="0" stroke="#ffc5b7" stroke-width="20" stroke-opacity="1"></use></g></g></g></g></svg>