<?xml version="1.0" encoding="UTF-8" standalone="no"?>
<!DOCTYPE svg PUBLIC "-//W3C//DTD SVG 1.1//EN" "http://www.w3.org/Graphics/SVG/1.1/DTD/svg11.dtd">
<svg version="1.1" xmlns="http://www.w3.org/2000/svg" xmlns:xlink="http://www.w3.org/1999/xlink" preserveAspectRatio="xMidYMid meet" viewBox="0 0 500 500" width="30" height="30"><defs><path d="M-1234.91 -526.21L1505.09 -526.21L1505.09 1447.12L-1234.91 1447.12L-1234.91 -526.21Z" id="a1mKVYJw9t"></path><path d="M423.55 205.54C446.55 205.54 465.2 224.19 465.2 247.19C465.2 295.76 465.2 399.8 465.2 448.36C465.2 471.37 446.55 490.01 423.55 490.01C347.5 490.01 160.98 490.01 84.92 490.01C61.92 490.01 43.27 471.37 43.27 448.36C43.27 399.8 43.27 295.76 43.27 247.19C43.27 224.19 61.92 205.54 84.92 205.54C160.98 205.54 347.5 205.54 423.55 205.54Z" id="a1x5GqS7pe"></path><path d="" id="aaG2FeWUM"></path><path d="M468.19 258.74L257.23 372.83L46.26 258.74" id="aMyGUBkim"></path><path d="M46.26 402.27L177.92 334.48L46.26 402.27Z" id="a5loG3RDBp"></path><path d="M333.55 334.48L465.2 402.27L333.55 334.48Z" id="aC0cRv7QT"></path></defs><g><g><g><use xlink:href="#a1mKVYJw9t" opacity="1" fill="#384e72" fill-opacity="1"></use></g><g><g><use xlink:href="#a1x5GqS7pe" opacity="1" fill-opacity="0" stroke="#ffc5b7" stroke-width="20" stroke-opacity="1"></use></g></g><g><g><use xlink:href="#aaG2FeWUM" opacity="1" fill-opacity="0" stroke="#cad1cd" stroke-width="1" stroke-opacity="1"></use></g></g><g><g><use xlink:href="#aMyGUBkim" opacity="1" fill-opacity="0" stroke="#ffc5b7" stroke-width="20" stroke-opacity="1"></use></g></g><g><g><use xlink:href="#a5loG3RDBp" opacity="1" fill-opacity="0" stroke="#ffc5b7" stroke-width="20" stroke-opacity="1"></use></g></g><g><g><use xlink:href="#aC0cRv7QT" opacity="1" fill-opacity="0" stroke="#ffc5b7" stroke-width="20" stroke-opacity="1"></use></g></g></g></g></svg>